<svg width="8" height="6" viewBox="0 0 8 6" fill="none" xmlns="http://www.w3.org/2000/svg">
<g id="Layer 3">
<path id="arrow-downward" d="M4.32101 5.67141C4.17279 5.67066 4.0266 5.63693 3.89305 5.57266C3.75949 5.5084 3.64191 5.4152 3.54885 5.29985L1.10465 2.33894C0.96183 2.16069 0.871954 1.9459 0.845266 1.71905C0.818577 1.4922 0.856151 1.26242 0.953706 1.05589C1.03283 0.87639 1.16194 0.723461 1.32563 0.615364C1.48932 0.507267 1.68066 0.448572 1.87681 0.446289H6.7652C6.96135 0.448572 7.1527 0.507267 7.31639 0.615364C7.48007 0.723461 7.60919 0.87639 7.68831 1.05589C7.78586 1.26242 7.82344 1.4922 7.79675 1.71905C7.77006 1.9459 7.68018 2.16069 7.53736 2.33894L5.09316 5.29985C5.0001 5.4152 4.88252 5.5084 4.74897 5.57266C4.61541 5.63693 4.46922 5.67066 4.32101 5.67141Z" fill="#FCC822"/>
</g>
</svg>
